STARTFONT 2.1
FONT -JDECW-Mincho-Medium-R-Normal--18-180-75-75-M-90-ISO8859-1
SIZE 18 75 75
FONTBOUNDINGBOX 10 20 0 -4

STARTPROPERTIES 26
FONTNAME_REGISTRY ""
FAMILY_NAME "Mincho"
FOUNDRY "JDECW"
WEIGHT_NAME "Medium"
SLANT "R"
SETWIDTH_NAME "Normal"
ADD_STYLE_NAME ""
PIXEL_SIZE 18
POINT_SIZE 180
RESOLUTION_X 75
RESOLUTION_Y 75
SPACING "M"
AVERAGE_WIDTH 90
CHARSET_REGISTRY "ISO8859"
CHARSET_ENCODING "1"
DEVICE_FONT_NAME "Mincho-ISO8859-1"
CHARSET_COLLECTIONS "ISO8859 1"
FULL_NAME "Mincho-ISO8859-1"
COPYRIGHT "Copyright (c) 1990 1991 TYPEBANK, Digital Equipment Corporation Japan"
CAP_HEIGHT 14
X_HEIGHT 9
WEIGHT 10
QUAD_WIDTH 10
DEFAULT_CHAR 32
FONT_DESCENT 4
FONT_ASCENT 16
ENDPROPERTIES

CHARS 223

STARTCHAR C20
ENCODING 32
SWIDTH 1000 0
DWIDTH 10 0
BBX 10 20 0 -4
BITMAP
0000
0000
0000
0000
0000
0000
0000
0000
0000
0000
0000
0000
0000
0000
0000
0000
0000
0000
0000
0000
ENDCHAR

STARTCHAR C21
ENCODING 33
SWIDTH 1000 0
DWIDTH 10 0
BBX 10 20 0 -4
BITMAP
0000
1000
3800
3800
3800
3800
3800
3800
3800
1000
1000
1000
1000
0000
0000
1000
3800
1000
0000
0000
ENDCHAR

STARTCHAR C22
ENCODING 34
SWIDTH 1000 0
DWIDTH 10 0
BBX 10 20 0 -4
BITMAP
0000
4600
EF00
4600
4200
4400
8800
0000
0000
0000
0000
0000
0000
0000
0000
0000
0000
0000
0000
0000
ENDCHAR

STARTCHAR C23
ENCODING 35
SWIDTH 1000 0
DWIDTH 10 0
BBX 10 20 0 -4
BITMAP
0000
1200
1200
1200
1200
7F80
2400
2400
2400
2400
2400
2400
FF00
2800
2800
2800
2800
2800
0000
0000
ENDCHAR

STARTCHAR C24
ENCODING 36
SWIDTH 1000 0
DWIDTH 10 0
BBX 10 20 0 -4
BITMAP
0000
1000
3C00
5200
9100
9300
9000
5000
3000
1800
1400
1200
1100
D100
9100
5200
3C00
1000
0000
0000
ENDCHAR

STARTCHAR C25
ENCODING 37
SWIDTH 1000 0
DWIDTH 10 0
BBX 10 20 0 -4
BITMAP
0000
0100
C100
A200
A200
A400
A400
A800
C800
1000
2600
2900
4900
4900
8900
8900
8600
8000
0000
0000
ENDCHAR

STARTCHAR C26
ENCODING 38
SWIDTH 1000 0
DWIDTH 10 0
BBX 10 20 0 -4
BITMAP
0000
3000
4800
4400
4400
4400
4800
5000
2000
5000
5300
8A00
8400
8400
4A00
7100
0000
0000
0000
0000
ENDCHAR

STARTCHAR C27
ENCODING 39
SWIDTH 1000 0
DWIDTH 10 0
BBX 10 20 0 -4
BITMAP
0000
6000
F000
6000
2000
4000
8000
0000
0000
0000
0000
0000
0000
0000
0000
0000
0000
0000
0000
0000
ENDCHAR

STARTCHAR C28
ENCODING 40
SWIDTH 1000 0
DWIDTH 10 0
BBX 10 20 0 -4
BITMAP
0000
0100
0200
0400
0800
0800
0800
1000
1000
1000
1000
1000
0800
0800
0800
0400
0400
0200
0100
0000
ENDCHAR

STARTCHAR C29
ENCODING 41
SWIDTH 1000 0
DWIDTH 10 0
BBX 10 20 0 -4
BITMAP
0000
8000
4000
2000
1000
1000
1000
0800
0800
0800
0800
0800
1000
1000
1000
2000
2000
4000
8000
0000
ENDCHAR

STARTCHAR C2a
ENCODING 42
SWIDTH 1000 0
DWIDTH 10 0
BBX 10 20 0 -4
BITMAP
0000
0000
0000
1000
1800
5200
D300
7600
1800
1000
1800
7600
D300
5200
1800
1000
0000
0000
0000
0000
ENDCHAR

STARTCHAR C2b
ENCODING 43
SWIDTH 1000 0
DWIDTH 10 0
BBX 10 20 0 -4
BITMAP
0000
0000
0000
1000
1000
1000
1000
1000
1000
FF00
1000
1000
1000
1000
1000
0000
0000
0000
0000
0000
ENDCHAR

STARTCHAR C2c
ENCODING 44
SWIDTH 1000 0
DWIDTH 10 0
BBX 10 20 0 -4
BITMAP
0000
0000
0000
0000
0000
0000
0000
0000
0000
0000
0000
0000
0000
6000
F000
F000
6000
6000
C000
0000
ENDCHAR

STARTCHAR C2d
ENCODING 45
SWIDTH 1000 0
DWIDTH 10 0
BBX 10 20 0 -4
BITMAP
0000
0000
0000
0000
0000
0000
0000
0000
0000
FF80
0000
0000
0000
0000
0000
0000
0000
0000
0000
0000
ENDCHAR

STARTCHAR C2e
ENCODING 46
SWIDTH 1000 0
DWIDTH 10 0
BBX 10 20 0 -4
BITMAP
0000
0000
0000
0000
0000
0000
0000
0000
0000
0000
0000
0000
0000
0000
4000
E000
E000
4000
0000
0000
ENDCHAR

STARTCHAR C2f
ENCODING 47
SWIDTH 1000 0
DWIDTH 10 0
BBX 10 20 0 -4
BITMAP
0000
0080
0100
0100
0200
0200
0400
0400
0800
0800
1000
2000
2000
4000
4000
8000
8000
8000
8000
0000
ENDCHAR

STARTCHAR C30
ENCODING 48
SWIDTH 1000 0
DWIDTH 10 0
BBX 10 20 0 -4
BITMAP
0000
0000
3800
4400
4400
8200
8200
8200
8200
8200
8200
8200
8200
4400
4400
3800
0000
0000
0000
0000
ENDCHAR

STARTCHAR C31
ENCODING 49
SWIDTH 1000 0
DWIDTH 10 0
BBX 10 20 0 -4
BITMAP
0000
0000
1000
3000
F000
1000
1000
1000
1000
1000
1000
1000
1000
1000
1000
FE00
0000
0000
0000
0000
ENDCHAR

STARTCHAR C32
ENCODING 50
SWIDTH 1000 0
DWIDTH 10 0
BBX 10 20 0 -4
BITMAP
0000
0000
3C00
4200
8100
8100
C100
0200
0200
0400
0800
1000
2000
4000
4100
8100
FF00
0000
0000
0000
ENDCHAR

STARTCHAR C33
ENCODING 51
SWIDTH 1000 0
DWIDTH 10 0
BBX 10 20 0 -4
BITMAP
0000
0000
3C00
4200
8100
C100
0100
0100
0200
1C00
0200
0100
C100
8100
4200
3C00
0000
0000
0000
0000
ENDCHAR

STARTCHAR C34
ENCODING 52
SWIDTH 1000 0
DWIDTH 10 0
BBX 10 20 0 -4
BITMAP
0000
0000
0400
0C00
0C00
1400
1400
2400
2400
4400
8400
FF00
0400
0400
0400
1F00
0000
0000
0000
0000
ENDCHAR

STARTCHAR C35
ENCODING 53
SWIDTH 1000 0
DWIDTH 10 0
BBX 10 20 0 -4
BITMAP
0000
0000
FE00
8000
8000
8000
8000
BC00
C200
8200
0100
0100
C100
8200
4200
3C00
0000
0000
0000
0000
ENDCHAR

STARTCHAR C36
ENCODING 54
SWIDTH 1000 0
DWIDTH 10 0
BBX 10 20 0 -4
BITMAP
0000
0000
3C00
4200
4100
8300
8000
8000
BC00
C200
8200
8100
8100
4200
4200
3C00
0000
0000
0000
0000
ENDCHAR

STARTCHAR C37
ENCODING 55
SWIDTH 1000 0
DWIDTH 10 0
BBX 10 20 0 -4
BITMAP
0000
0000
FF00
8100
8100
0200
0200
0400
0400
0400
0800
0800
1000
1000
1000
1000
0000
0000
0000
0000
ENDCHAR

STARTCHAR C38
ENCODING 56
SWIDTH 1000 0
DWIDTH 10 0
BBX 10 20 0 -4
BITMAP
0000
0000
3C00
4200
8100
8100
4200
2400
1800
2400
4200
8100
8100
8100
4200
3C00
0000
0000
0000
0000
ENDCHAR

STARTCHAR C39
ENCODING 57
SWIDTH 1000 0
DWIDTH 10 0
BBX 10 20 0 -4
BITMAP
0000
0000
3C00
4200
4200
8100
8100
8100
4100
4300
3D00
0100
C100
8200
4200
3C00
0000
0000
0000
0000
ENDCHAR

STARTCHAR C3a
ENCODING 58
SWIDTH 1000 0
DWIDTH 10 0
BBX 10 20 0 -4
BITMAP
0000
0000
0000
0000
0000
0000
0000
1800
3C00
1800
0000
0000
0000
1800
3C00
1800
0000
0000
0000
0000
ENDCHAR

STARTCHAR C3b
ENCODING 59
SWIDTH 1000 0
DWIDTH 10 0
BBX 10 20 0 -4
BITMAP
0000
0000
0000
0000
0000
0000
0000
1800
3C00
1800
0000
0000
0000
1800
3C00
1800
1800
3000
0000
0000
ENDCHAR

STARTCHAR C3c
ENCODING 60
SWIDTH 1000 0
DWIDTH 10 0
BBX 10 20 0 -4
BITMAP
0000
0180
0200
0400
0800
1000
2000
4000
8000
8000
8000
4000
2000
1000
0800
0400
0200
0100
0080
0000
ENDCHAR

STARTCHAR C3d
ENCODING 61
SWIDTH 1000 0
DWIDTH 10 0
BBX 10 20 0 -4
BITMAP
0000
0000
0000
0000
0000
0000
0000
FF00
0000
0000
FF00
0000
0000
0000
0000
0000
0000
0000
0000
0000
ENDCHAR

STARTCHAR C3e
ENCODING 62
SWIDTH 1000 0
DWIDTH 10 0
BBX 10 20 0 -4
BITMAP
0000
8000
4000
2000
1000
0800
0400
0200
0100
0080
0100
0200
0400
0800
1000
2000
4000
8000
8000
0000
ENDCHAR

STARTCHAR C3f
ENCODING 63
SWIDTH 1000 0
DWIDTH 10 0
BBX 10 20 0 -4
BITMAP
0000
3C00
4200
8100
8100
C100
0200
0200
0400
0800
1000
1000
1000
0000
0000
1000
3800
1000
0000
0000
ENDCHAR

STARTCHAR C40
ENCODING 64
SWIDTH 1000 0
DWIDTH 10 0
BBX 10 20 0 -4
BITMAP
0000
0000
1C00
2200
4100
4D00
9480
9480
A480
A480
A500
A500
5E00
4000
2100
1E00
0000
0000
0000
0000
ENDCHAR

STARTCHAR C41
ENCODING 65
SWIDTH 1000 0
DWIDTH 10 0
BBX 10 20 0 -4
BITMAP
0000
0000
1000
1000
2800
2800
2800
2800
2400
2400
3C00
2400
4200
4200
4200
E700
0000
0000
0000
0000
ENDCHAR

STARTCHAR C42
ENCODING 66
SWIDTH 1000 0
DWIDTH 10 0
BBX 10 20 0 -4
BITMAP
0000
0000
F800
4400
4200
4200
4200
4400
7800
4400
4200
4100
4100
4100
4200
FC00
0000
0000
0000
0000
ENDCHAR

STARTCHAR C43
ENCODING 67
SWIDTH 1000 0
DWIDTH 10 0
BBX 10 20 0 -4
BITMAP
0000
0000
1A00
2600
4200
4000
8000
8000
8000
8000
8100
8100
4200
4200
2400
1800
0000
0000
0000
0000
ENDCHAR

STARTCHAR C44
ENCODING 68
SWIDTH 1000 0
DWIDTH 10 0
BBX 10 20 0 -4
BITMAP
0000
0000
F000
4C00
4200
4200
4100
4100
4100
4100
4100
4100
4200
4200
4C00
F000
0000
0000
0000
0000
ENDCHAR

STARTCHAR C45
ENCODING 69
SWIDTH 1000 0
DWIDTH 10 0
BBX 10 20 0 -4
BITMAP
0000
0000
FF00
4100
4100
4000
4000
4400
4400
7C00
4400
4000
4000
4100
4100
FF00
0000
0000
0000
0000
ENDCHAR

STARTCHAR C46
ENCODING 70
SWIDTH 1000 0
DWIDTH 10 0
BBX 10 20 0 -4
BITMAP
0000
0000
FF00
4100
4100
4000
4000
4400
4400
7C00
4400
4000
4000
4000
4000
F000
0000
0000
0000
0000
ENDCHAR

STARTCHAR C47
ENCODING 71
SWIDTH 1000 0
DWIDTH 10 0
BBX 10 20 0 -4
BITMAP
0000
0000
1D00
2300
4100
4100
8000
8000
8000
8700
8100
8100
4100
4100
2300
1D00
0000
0000
0000
0000
ENDCHAR

STARTCHAR C48
ENCODING 72
SWIDTH 1000 0
DWIDTH 10 0
BBX 10 20 0 -4
BITMAP
0000
0000
E380
4100
4100
4100
4100
4100
4100
7F00
4100
4100
4100
4100
4100
E380
0000
0000
0000
0000
ENDCHAR

STARTCHAR C49
ENCODING 73
SWIDTH 1000 0
DWIDTH 10 0
BBX 10 20 0 -4
BITMAP
0000
0000
7C00
1000
1000
1000
1000
1000
1000
1000
1000
1000
1000
1000
1000
7C00
0000
0000
0000
0000
ENDCHAR

STARTCHAR C4a
ENCODING 74
SWIDTH 1000 0
DWIDTH 10 0
BBX 10 20 0 -4
BITMAP
0000
0000
1F00
0400
0400
0400
0400
0400
0400
0400
0400
C400
8400
8400
4800
3000
0000
0000
0000
0000
ENDCHAR

STARTCHAR C4b
ENCODING 75
SWIDTH 1000 0
DWIDTH 10 0
BBX 10 20 0 -4
BITMAP
0000
0000
C700
4200
4400
4800
4800
5000
6000
5000
4800
4400
4200
4200
4100
C380
0000
0000
0000
0000
ENDCHAR

STARTCHAR C4c
ENCODING 76
SWIDTH 1000 0
DWIDTH 10 0
BBX 10 20 0 -4
BITMAP
0000
0000
F000
4000
4000
4000
4000
4000
4000
4000
4000
4000
4000
4100
4100
FF00
0000
0000
0000
0000
ENDCHAR

STARTCHAR C4d
ENCODING 77
SWIDTH 1000 0
DWIDTH 10 0
BBX 10 20 0 -4
BITMAP
0000
0000
8380
8300
C500
C500
C500
C500
A900
A900
9100
9100
9100
8100
8100
8380
0000
0000
0000
0000
ENDCHAR

STARTCHAR C4e
ENCODING 78
SWIDTH 1000 0
DWIDTH 10 0
BBX 10 20 0 -4
BITMAP
0000
0000
E180
5100
5100
4900
4900
4900
4500
4500
4300
4300
4300
4100
4100
E100
0000
0000
0000
0000
ENDCHAR

STARTCHAR C4f
ENCODING 79
SWIDTH 1000 0
DWIDTH 10 0
BBX 10 20 0 -4
BITMAP
0000
0000
1800
2400
4200
4200
8100
8100
8100
8100
8100
8100
4200
4200
2400
1800
0000
0000
0000
0000
ENDCHAR

STARTCHAR C50
ENCODING 80
SWIDTH 1000 0
DWIDTH 10 0
BBX 10 20 0 -4
BITMAP
0000
0000
FC00
4200
4100
4100
4100
4100
4200
7C00
4000
4000
4000
4000
4000
F000
0000
0000
0000
0000
ENDCHAR

STARTCHAR C51
ENCODING 81
SWIDTH 1000 0
DWIDTH 10 0
BBX 10 20 0 -4
BITMAP
0000
0000
1800
2400
4200
4200
8100
8100
8100
8100
8100
8100
5A00
6600
2400
1800
0480
0300
0000
0000
ENDCHAR

STARTCHAR C52
ENCODING 82
SWIDTH 1000 0
DWIDTH 10 0
BBX 10 20 0 -4
BITMAP
0000
0000
FC00
4200
4100
4100
4100
4100
4200
7C00
4800
4400
4200
4200
4100
E180
0000
0000
0000
0000
ENDCHAR

STARTCHAR C53
ENCODING 83
SWIDTH 1000 0
DWIDTH 10 0
BBX 10 20 0 -4
BITMAP
0000
0000
3A00
4600
8200
8000
8000
4000
3000
0C00
0200
0100
8100
8100
C200
BC00
0000
0000
0000
0000
ENDCHAR

STARTCHAR C54
ENCODING 84
SWIDTH 1000 0
DWIDTH 10 0
BBX 10 20 0 -4
BITMAP
0000
0000
FF00
9100
9100
1000
1000
1000
1000
1000
1000
1000
1000
1000
1000
3C00
0000
0000
0000
0000
ENDCHAR

STARTCHAR C55
ENCODING 85
SWIDTH 1000 0
DWIDTH 10 0
BBX 10 20 0 -4
BITMAP
0000
0000
E380
4100
4100
4100
4100
4100
4100
4100
4100
4100
4100
2200
2200
1C00
0000
0000
0000
0000
ENDCHAR

STARTCHAR C56
ENCODING 86
SWIDTH 1000 0
DWIDTH 10 0
BBX 10 20 0 -4
BITMAP
0000
0000
C700
4200
4200
4200
4200
4400
4400
4400
2800
2800
2800
1000
1000
1000
0000
0000
0000
0000
ENDCHAR

STARTCHAR C57
ENCODING 87
SWIDTH 1000 0
DWIDTH 10 0
BBX 10 20 0 -4
BITMAP
0000
0000
8380
8100
8100
8100
9100
9100
9100
AA00
AA00
AA00
AA00
4400
4400
4400
0000
0000
0000
0000
ENDCHAR

STARTCHAR C58
ENCODING 88
SWIDTH 1000 0
DWIDTH 10 0
BBX 10 20 0 -4
BITMAP
0000
0000
C700
4200
4200
4400
4400
2800
2800
1000
2800
4400
4400
4200
4200
C700
0000
0000
0000
0000
ENDCHAR

STARTCHAR C59
ENCODING 89
SWIDTH 1000 0
DWIDTH 10 0
BBX 10 20 0 -4
BITMAP
0000
0000
E700
4200
4200
2400
2400
2400
1800
1800
1000
1000
1000
1000
1000
3C00
0000
0000
0000
0000
ENDCHAR

STARTCHAR C5a
ENCODING 90
SWIDTH 1000 0
DWIDTH 10 0
BBX 10 20 0 -4
BITMAP
0000
0000
FE00
8400
8400
0800
0800
1000
1000
2000
4000
4000
8000
8100
8100
FF00
0000
0000
0000
0000
ENDCHAR

STARTCHAR C5b
ENCODING 91
SWIDTH 1000 0
DWIDTH 10 0
BBX 10 20 0 -4
BITMAP
0000
0700
0400
0400
0400
0400
0400
0400
0400
0400
0400
0400
0400
0400
0400
0400
0400
0400
0700
0000
ENDCHAR

STARTCHAR C5c
ENCODING 92
SWIDTH 1000 0
DWIDTH 10 0
BBX 10 20 0 -4
BITMAP
0000
8000
8000
8000
8000
4000
4000
2000
2000
1000
0800
0800
0400
0400
0200
0200
0100
0100
0080
0000
ENDCHAR

STARTCHAR C5d
ENCODING 93
SWIDTH 1000 0
DWIDTH 10 0
BBX 10 20 0 -4
BITMAP
0000
E000
2000
2000
2000
2000
2000
2000
2000
2000
2000
2000
2000
2000
2000
2000
2000
2000
E000
0000
ENDCHAR

STARTCHAR C5e
ENCODING 94
SWIDTH 1000 0
DWIDTH 10 0
BBX 10 20 0 -4
BITMAP
0000
1800
6600
0000
0000
0000
0000
0000
0000
0000
0000
0000
0000
0000
0000
0000
0000
0000
0000
0000
ENDCHAR

STARTCHAR C5f
ENCODING 95
SWIDTH 1000 0
DWIDTH 10 0
BBX 10 20 0 -4
BITMAP
0000
0000
0000
0000
0000
0000
0000
0000
0000
0000
0000
0000
0000
0000
0000
0000
0000
0000
FF80
0000
ENDCHAR

STARTCHAR C60
ENCODING 96
SWIDTH 1000 0
DWIDTH 10 0
BBX 10 20 0 -4
BITMAP
0000
6000
F000
6000
4000
2000
1000
0000
0000
0000
0000
0000
0000
0000
0000
0000
0000
0000
0000
0000
ENDCHAR

STARTCHAR C61
ENCODING 97
SWIDTH 1000 0
DWIDTH 10 0
BBX 10 20 0 -4
BITMAP
0000
0000
0000
0000
0000
0000
0000
3C00
4200
6200
0200
1E00
6200
8200
8600
7B00
0000
0000
0000
0000
ENDCHAR

STARTCHAR C62
ENCODING 98
SWIDTH 1000 0
DWIDTH 10 0
BBX 10 20 0 -4
BITMAP
0000
0000
C000
4000
4000
4000
4000
5C00
6200
4100
4100
4100
4100
4100
6200
5C00
0000
0000
0000
0000
ENDCHAR

STARTCHAR C63
ENCODING 99
SWIDTH 1000 0
DWIDTH 10 0
BBX 10 20 0 -4
BITMAP
0000
0000
0000
0000
0000
0000
0000
3C00
4200
4100
8300
8000
8100
4100
4200
3C00
0000
0000
0000
0000
ENDCHAR

STARTCHAR C64
ENCODING 100
SWIDTH 1000 0
DWIDTH 10 0
BBX 10 20 0 -4
BITMAP
0000
0000
0600
0200
0200
0200
0200
3A00
4600
8200
8200
8200
8200
8200
4600
3B00
0000
0000
0000
0000
ENDCHAR

STARTCHAR C65
ENCODING 101
SWIDTH 1000 0
DWIDTH 10 0
BBX 10 20 0 -4
BITMAP
0000
0000
0000
0000
0000
0000
0000
3C00
4200
4200
8100
FF00
8000
4100
4200
3C00
0000
0000
0000
0000
ENDCHAR

STARTCHAR C66
ENCODING 102
SWIDTH 1000 0
DWIDTH 10 0
BBX 10 20 0 -4
BITMAP
0000
0000
0E00
1100
1300
1000
1000
7E00
1000
1000
1000
1000
1000
1000
1000
3C00
0000
0000
0000
0000
ENDCHAR

STARTCHAR C67
ENCODING 103
SWIDTH 1000 0
DWIDTH 10 0
BBX 10 20 0 -4
BITMAP
0000
0000
0000
0000
0000
0000
0000
1B00
2480
4200
2400
1800
6000
3C00
4200
8100
8100
4200
3C00
0000
ENDCHAR

STARTCHAR C68
ENCODING 104
SWIDTH 1000 0
DWIDTH 10 0
BBX 10 20 0 -4
BITMAP
0000
0000
C000
4000
4000
4000
4000
5800
6400
4200
4200
4200
4200
4200
4200
E700
0000
0000
0000
0000
ENDCHAR

STARTCHAR C69
ENCODING 105
SWIDTH 1000 0
DWIDTH 10 0
BBX 10 20 0 -4
BITMAP
0000
0000
1800
1800
0000
0000
0000
3800
0800
0800
0800
0800
0800
0800
0800
7F00
0000
0000
0000
0000
ENDCHAR

STARTCHAR C6a
ENCODING 106
SWIDTH 1000 0
DWIDTH 10 0
BBX 10 20 0 -4
BITMAP
0000
0000
0600
0600
0000
0000
0000
1E00
0200
0200
0200
0200
0200
0200
0200
C200
8200
4400
3800
0000
ENDCHAR

STARTCHAR C6b
ENCODING 107
SWIDTH 1000 0
DWIDTH 10 0
BBX 10 20 0 -4
BITMAP
0000
0000
8000
8000
8000
8000
8000
9E00
8800
9000
A000
D000
8800
8400
8200
C700
0000
0000
0000
0000
ENDCHAR

STARTCHAR C6c
ENCODING 108
SWIDTH 1000 0
DWIDTH 10 0
BBX 10 20 0 -4
BITMAP
0000
0000
3800
0800
0800
0800
0800
0800
0800
0800
0800
0800
0800
0800
0800
7F00
0000
0000
0000
0000
ENDCHAR

STARTCHAR C6d
ENCODING 109
SWIDTH 1000 0
DWIDTH 10 0
BBX 10 20 0 -4
BITMAP
0000
0000
0000
0000
0000
0000
0000
B600
D900
9100
9100
9100
9100
9100
9100
BB80
0000
0000
0000
0000
ENDCHAR

STARTCHAR C6e
ENCODING 110
SWIDTH 1000 0
DWIDTH 10 0
BBX 10 20 0 -4
BITMAP
0000
0000
0000
0000
0000
0000
0000
DC00
6200
4200
4200
4200
4200
4200
4200
E700
0000
0000
0000
0000
ENDCHAR

STARTCHAR C6f
ENCODING 111
SWIDTH 1000 0
DWIDTH 10 0
BBX 10 20 0 -4
BITMAP
0000
0000
0000
0000
0000
0000
0000
3C00
4200
4200
8100
8100
8100
4200
4200
3C00
0000
0000
0000
0000
ENDCHAR

STARTCHAR C70
ENCODING 112
SWIDTH 1000 0
DWIDTH 10 0
BBX 10 20 0 -4
BITMAP
0000
0000
0000
0000
0000
0000
0000
DC00
6200
4100
4100
4100
4100
6200
5C00
4000
4000
4000
F000
0000
ENDCHAR

STARTCHAR C71
ENCODING 113
SWIDTH 1000 0
DWIDTH 10 0
BBX 10 20 0 -4
BITMAP
0000
0000
0000
0000
0000
0000
0000
3A00
4600
8200
8200
8200
8200
4600
3A00
0200
0200
0200
0F00
0000
ENDCHAR

STARTCHAR C72
ENCODING 114
SWIDTH 1000 0
DWIDTH 10 0
BBX 10 20 0 -4
BITMAP
0000
0000
0000
0000
0000
0000
0000
EE00
3100
2300
2000
2000
2000
2000
2000
7800
0000
0000
0000
0000
ENDCHAR

STARTCHAR C73
ENCODING 115
SWIDTH 1000 0
DWIDTH 10 0
BBX 10 20 0 -4
BITMAP
0000
0000
0000
0000
0000
0000
0000
7A00
8600
8200
8000
7000
0C00
0200
8200
C200
BC00
0000
0000
0000
ENDCHAR

STARTCHAR C74
ENCODING 116
SWIDTH 1000 0
DWIDTH 10 0
BBX 10 20 0 -4
BITMAP
0000
0000
0000
0000
2000
2000
2000
FC00
2000
2000
2000
2000
2000
2000
2200
1C00
0000
0000
0000
0000
ENDCHAR

STARTCHAR C75
ENCODING 117
SWIDTH 1000 0
DWIDTH 10 0
BBX 10 20 0 -4
BITMAP
0000
0000
0000
0000
0000
0000
0000
C600
4200
4200
4200
4200
4200
4200
4600
3B00
0000
0000
0000
0000
ENDCHAR

STARTCHAR C76
ENCODING 118
SWIDTH 1000 0
DWIDTH 10 0
BBX 10 20 0 -4
BITMAP
0000
0000
0000
0000
0000
0000
0000
C700
4200
4200
4400
4400
2800
2800
1000
1000
0000
0000
0000
0000
ENDCHAR

STARTCHAR C77
ENCODING 119
SWIDTH 1000 0
DWIDTH 10 0
BBX 10 20 0 -4
BITMAP
0000
0000
0000
0000
0000
0000
0000
C700
4200
4200
5200
6A00
6A00
6A00
4400
4400
0000
0000
0000
0000
ENDCHAR

STARTCHAR C78
ENCODING 120
SWIDTH 1000 0
DWIDTH 10 0
BBX 10 20 0 -4
BITMAP
0000
0000
0000
0000
0000
0000
0000
C700
4200
4400
2800
1000
2800
4400
4200
C700
0000
0000
0000
0000
ENDCHAR

STARTCHAR C79
ENCODING 121
SWIDTH 1000 0
DWIDTH 10 0
BBX 10 20 0 -4
BITMAP
0000
0000
0000
0000
0000
0000
0000
E380
4100
4100
2200
1400
1400
0800
0800
0800
D000
9000
6000
0000
ENDCHAR

STARTCHAR C7a
ENCODING 122
SWIDTH 1000 0
DWIDTH 10 0
BBX 10 20 0 -4
BITMAP
0000
0000
0000
0000
0000
0000
0000
7F00
4200
0400
0800
1000
2000
2100
4100
FF00
0000
0000
0000
0000
ENDCHAR

STARTCHAR C7b
ENCODING 123
SWIDTH 1000 0
DWIDTH 10 0
BBX 10 20 0 -4
BITMAP
0000
0300
0400
0400
0400
0400
0400
0400
0800
1000
0800
0400
0400
0400
0400
0400
0400
0400
0300
0000
ENDCHAR

STARTCHAR C7c
ENCODING 124
SWIDTH 1000 0
DWIDTH 10 0
BBX 10 20 0 -4
BITMAP
0000
1000
1000
1000
1000
1000
1000
1000
1000
1000
1000
1000
1000
1000
1000
1000
1000
1000
1000
0000
ENDCHAR

STARTCHAR C7d
ENCODING 125
SWIDTH 1000 0
DWIDTH 10 0
BBX 10 20 0 -4
BITMAP
0000
C000
2000
2000
2000
2000
2000
2000
1000
0800
1000
2000
2000
2000
2000
2000
2000
2000
C000
0000
ENDCHAR

STARTCHAR C7e
ENCODING 126
SWIDTH 1000 0
DWIDTH 10 0
BBX 10 20 0 -4
BITMAP
0000
3100
4E00
0000
0000
0000
0000
0000
0000
0000
0000
0000
0000
0000
0000
0000
0000
0000
0000
0000
ENDCHAR

STARTCHAR C80
ENCODING 128
SWIDTH 1000 0
DWIDTH 10 0
BBX 10 20 0 -4
BITMAP
0000
0000
0000
0000
0000
0000
0000
0000
0000
0000
0000
0000
0000
0000
0000
0000
0000
0000
0000
0000
ENDCHAR

STARTCHAR C81
ENCODING 129
SWIDTH 1000 0
DWIDTH 10 0
BBX 10 20 0 -4
BITMAP
0000
0000
0000
0000
0000
0000
0000
0000
0000
0000
0000
0000
0000
0000
0000
0000
0000
0000
0000
0000
ENDCHAR

STARTCHAR C82
ENCODING 130
SWIDTH 1000 0
DWIDTH 10 0
BBX 10 20 0 -4
BITMAP
0000
0000
0000
0000
0000
0000
0000
0000
0000
0000
0000
0000
0000
0000
0000
0000
0000
0000
0000
0000
ENDCHAR

STARTCHAR C83
ENCODING 131
SWIDTH 1000 0
DWIDTH 10 0
BBX 10 20 0 -4
BITMAP
0000
0000
0000
0000
0000
0000
0000
0000
0000
0000
0000
0000
0000
0000
0000
0000
0000
0000
0000
0000
ENDCHAR

STARTCHAR C84
ENCODING 132
SWIDTH 1000 0
DWIDTH 10 0
BBX 10 20 0 -4
BITMAP
0000
0000
0000
0000
0000
0000
0000
0000
0000
0000
0000
0000
0000
0000
0000
0000
0000
0000
0000
0000
ENDCHAR

STARTCHAR C85
ENCODING 133
SWIDTH 1000 0
DWIDTH 10 0
BBX 10 20 0 -4
BITMAP
0000
0000
0000
0000
0000
0000
0000
0000
0000
0000
0000
0000
0000
0000
0000
0000
0000
0000
0000
0000
ENDCHAR

STARTCHAR C86
ENCODING 134
SWIDTH 1000 0
DWIDTH 10 0
BBX 10 20 0 -4
BITMAP
0000
0000
0000
0000
0000
0000
0000
0000
0000
0000
0000
0000
0000
0000
0000
0000
0000
0000
0000
0000
ENDCHAR

STARTCHAR C87
ENCODING 135
SWIDTH 1000 0
DWIDTH 10 0
BBX 10 20 0 -4
BITMAP
0000
0000
0000
0000
0000
0000
0000
0000
0000
0000
0000
0000
0000
0000
0000
0000
0000
0000
0000
0000
ENDCHAR

STARTCHAR C88
ENCODING 136
SWIDTH 1000 0
DWIDTH 10 0
BBX 10 20 0 -4
BITMAP
0000
0000
0000
0000
0000
0000
0000
0000
0000
0000
0000
0000
0000
0000
0000
0000
0000
0000
0000
0000
ENDCHAR

STARTCHAR C89
ENCODING 137
SWIDTH 1000 0
DWIDTH 10 0
BBX 10 20 0 -4
BITMAP
0000
0000
0000
0000
0000
0000
0000
0000
0000
0000
0000
0000
0000
0000
0000
0000
0000
0000
0000
0000
ENDCHAR

STARTCHAR C8a
ENCODING 138
SWIDTH 1000 0
DWIDTH 10 0
BBX 10 20 0 -4
BITMAP
0000
0000
0000
0000
0000
0000
0000
0000
0000
0000
0000
0000
0000
0000
0000
0000
0000
0000
0000
0000
ENDCHAR

STARTCHAR C8b
ENCODING 139
SWIDTH 1000 0
DWIDTH 10 0
BBX 10 20 0 -4
BITMAP
0000
0000
0000
0000
0000
0000
0000
0000
0000
0000
0000
0000
0000
0000
0000
0000
0000
0000
0000
0000
ENDCHAR

STARTCHAR C8c
ENCODING 140
SWIDTH 1000 0
DWIDTH 10 0
BBX 10 20 0 -4
BITMAP
0000
0000
0000
0000
0000
0000
0000
0000
0000
0000
0000
0000
0000
0000
0000
0000
0000
0000
0000
0000
ENDCHAR

STARTCHAR C8d
ENCODING 141
SWIDTH 1000 0
DWIDTH 10 0
BBX 10 20 0 -4
BITMAP
0000
0000
0000
0000
0000
0000
0000
0000
0000
0000
0000
0000
0000
0000
0000
0000
0000
0000
0000
0000
ENDCHAR

STARTCHAR C8e
ENCODING 142
SWIDTH 1000 0
DWIDTH 10 0
BBX 10 20 0 -4
BITMAP
0000
0000
0000
0000
0000
0000
0000
0000
0000
0000
0000
0000
0000
0000
0000
0000
0000
0000
0000
0000
ENDCHAR

STARTCHAR C8f
ENCODING 143
SWIDTH 1000 0
DWIDTH 10 0
BBX 10 20 0 -4
BITMAP
0000
0000
0000
0000
0000
0000
0000
0000
0000
0000
0000
0000
0000
0000
0000
0000
0000
0000
0000
0000
ENDCHAR

STARTCHAR C90
ENCODING 144
SWIDTH 1000 0
DWIDTH 10 0
BBX 10 20 0 -4
BITMAP
0000
0000
0000
0000
0000
0000
0000
0000
0000
0000
0000
0000
0000
0000
0000
0000
0000
0000
0000
0000
ENDCHAR

STARTCHAR C91
ENCODING 145
SWIDTH 1000 0
DWIDTH 10 0
BBX 10 20 0 -4
BITMAP
0000
0000
0000
0000
0000
0000
0000
0000
0000
0000
0000
0000
0000
0000
0000
0000
0000
0000
0000
0000
ENDCHAR

STARTCHAR C92
ENCODING 146
SWIDTH 1000 0
DWIDTH 10 0
BBX 10 20 0 -4
BITMAP
0000
0000
0000
0000
0000
0000
0000
0000
0000
0000
0000
0000
0000
0000
0000
0000
0000
0000
0000
0000
ENDCHAR

STARTCHAR C93
ENCODING 147
SWIDTH 1000 0
DWIDTH 10 0
BBX 10 20 0 -4
BITMAP
0000
0000
0000
0000
0000
0000
0000
0000
0000
0000
0000
0000
0000
0000
0000
0000
0000
0000
0000
0000
ENDCHAR

STARTCHAR C94
ENCODING 148
SWIDTH 1000 0
DWIDTH 10 0
BBX 10 20 0 -4
BITMAP
0000
0000
0000
0000
0000
0000
0000
0000
0000
0000
0000
0000
0000
0000
0000
0000
0000
0000
0000
0000
ENDCHAR

STARTCHAR C95
ENCODING 149
SWIDTH 1000 0
DWIDTH 10 0
BBX 10 20 0 -4
BITMAP
0000
0000
0000
0000
0000
0000
0000
0000
0000
0000
0000
0000
0000
0000
0000
0000
0000
0000
0000
0000
ENDCHAR

STARTCHAR C96
ENCODING 150
SWIDTH 1000 0
DWIDTH 10 0
BBX 10 20 0 -4
BITMAP
0000
0000
0000
0000
0000
0000
0000
0000
0000
0000
0000
0000
0000
0000
0000
0000
0000
0000
0000
0000
ENDCHAR

STARTCHAR C97
ENCODING 151
SWIDTH 1000 0
DWIDTH 10 0
BBX 10 20 0 -4
BITMAP
0000
0000
0000
0000
0000
0000
0000
0000
0000
0000
0000
0000
0000
0000
0000
0000
0000
0000
0000
0000
ENDCHAR

STARTCHAR C98
ENCODING 152
SWIDTH 1000 0
DWIDTH 10 0
BBX 10 20 0 -4
BITMAP
0000
0000
0000
0000
0000
0000
0000
0000
0000
0000
0000
0000
0000
0000
0000
0000
0000
0000
0000
0000
ENDCHAR

STARTCHAR C99
ENCODING 153
SWIDTH 1000 0
DWIDTH 10 0
BBX 10 20 0 -4
BITMAP
0000
0000
0000
0000
0000
0000
0000
0000
0000
0000
0000
0000
0000
0000
0000
0000
0000
0000
0000
0000
ENDCHAR

STARTCHAR C9a
ENCODING 154
SWIDTH 1000 0
DWIDTH 10 0
BBX 10 20 0 -4
BITMAP
0000
0000
0000
0000
0000
0000
0000
0000
0000
0000
0000
0000
0000
0000
0000
0000
0000
0000
0000
0000
ENDCHAR

STARTCHAR C9b
ENCODING 155
SWIDTH 1000 0
DWIDTH 10 0
BBX 10 20 0 -4
BITMAP
0000
0000
0000
0000
0000
0000
0000
0000
0000
0000
0000
0000
0000
0000
0000
0000
0000
0000
0000
0000
ENDCHAR

STARTCHAR C9c
ENCODING 156
SWIDTH 1000 0
DWIDTH 10 0
BBX 10 20 0 -4
BITMAP
0000
0000
0000
0000
0000
0000
0000
0000
0000
0000
0000
0000
0000
0000
0000
0000
0000
0000
0000
0000
ENDCHAR

STARTCHAR C9d
ENCODING 157
SWIDTH 1000 0
DWIDTH 10 0
BBX 10 20 0 -4
BITMAP
0000
0000
0000
0000
0000
0000
0000
0000
0000
0000
0000
0000
0000
0000
0000
0000
0000
0000
0000
0000
ENDCHAR

STARTCHAR C9e
ENCODING 158
SWIDTH 1000 0
DWIDTH 10 0
BBX 10 20 0 -4
BITMAP
0000
0000
0000
0000
0000
0000
0000
0000
0000
0000
0000
0000
0000
0000
0000
0000
0000
0000
0000
0000
ENDCHAR

STARTCHAR C9f
ENCODING 159
SWIDTH 1000 0
DWIDTH 10 0
BBX 10 20 0 -4
BITMAP
0000
0000
0000
0000
0000
0000
0000
0000
0000
0000
0000
0000
0000
0000
0000
0000
0000
0000
0000
0000
ENDCHAR

STARTCHAR Ca0
ENCODING 160
SWIDTH 1000 0
DWIDTH 10 0
BBX 10 20 0 -4
BITMAP
0000
0000
0000
0000
0000
0000
0000
0000
0000
0000
0000
0000
0000
0000
0000
0000
0000
0000
0000
0000
ENDCHAR

STARTCHAR Ca1
ENCODING 161
SWIDTH 1000 0
DWIDTH 10 0
BBX 10 20 0 -4
BITMAP
0000
0000
1800
1800
0000
0000
1800
1800
1800
1800
3C00
3C00
3C00
3C00
3C00
1800
0000
0000
0000
0000
ENDCHAR

STARTCHAR Ca2
ENCODING 162
SWIDTH 1000 0
DWIDTH 10 0
BBX 10 20 0 -4
BITMAP
0000
0100
0100
1E00
2300
4500
4400
4800
4800
5100
5100
2200
3C00
4000
4000
0000
0000
0000
0000
0000
ENDCHAR

STARTCHAR Ca3
ENCODING 163
SWIDTH 1000 0
DWIDTH 10 0
BBX 10 20 0 -4
BITMAP
0000
1C00
2200
2100
2100
1000
1000
7E00
1000
1000
1000
1000
7000
B080
B100
4E00
0000
0000
0000
0000
ENDCHAR

STARTCHAR Ca4
ENCODING 164
SWIDTH 1000 0
DWIDTH 10 0
BBX 10 20 0 -4
BITMAP
0000
0000
0000
0000
4100
6300
3E00
2200
4100
4100
4100
2200
3E00
6300
4100
0000
0000
0000
0000
0000
ENDCHAR

STARTCHAR Ca5
ENCODING 165
SWIDTH 1000 0
DWIDTH 10 0
BBX 10 20 0 -4
BITMAP
0000
8080
4100
4100
2200
2200
F780
1400
0800
0800
FF80
0800
0800
0800
0800
1C00
0000
0000
0000
0000
ENDCHAR

STARTCHAR Ca6
ENCODING 166
SWIDTH 1000 0
DWIDTH 10 0
BBX 10 20 0 -4
BITMAP
0000
0800
0800
0800
0800
0800
0800
0000
0000
0000
0800
0800
0800
0800
0800
0800
0000
0000
0000
0000
ENDCHAR

STARTCHAR Ca7
ENCODING 167
SWIDTH 1000 0
DWIDTH 10 0
BBX 10 20 0 -4
BITMAP
0000
3C00
4200
8100
8100
4000
7C00
8300
8080
8080
6080
1F00
0100
0080
4080
2100
1E00
0000
0000
0000
ENDCHAR

STARTCHAR Ca8
ENCODING 168
SWIDTH 1000 0
DWIDTH 10 0
BBX 10 20 0 -4
BITMAP
0000
2400
2400
2400
0000
0000
0000
0000
0000
0000
0000
0000
0000
0000
0000
0000
0000
0000
0000
0000
ENDCHAR

STARTCHAR Ca9
ENCODING 169
SWIDTH 1000 0
DWIDTH 10 0
BBX 10 20 0 -4
BITMAP
0000
3E00
4100
8080
9C80
A280
A280
A080
A080
A080
A280
A280
9C80
8080
4100
3E00
0000
0000
0000
0000
ENDCHAR

STARTCHAR Caa
ENCODING 170
SWIDTH 1000 0
DWIDTH 10 0
BBX 10 20 0 -4
BITMAP
0000
3800
0400
0200
3E00
4200
4200
4600
3B00
0000
FF80
0000
0000
0000
0000
0000
0000
0000
0000
0000
ENDCHAR

STARTCHAR Cab
ENCODING 171
SWIDTH 1000 0
DWIDTH 10 0
BBX 10 20 0 -4
BITMAP
0000
0000
1100
1100
2200
2200
4400
4400
8800
4400
4400
2200
2200
1100
1100
0000
0000
0000
0000
0000
ENDCHAR

STARTCHAR Cac
ENCODING 172
SWIDTH 1000 0
DWIDTH 10 0
BBX 10 20 0 -4
BITMAP
0000
0000
0000
0000
0000
0000
0000
0000
7F00
0100
0100
0100
0000
0000
0000
0000
0000
0000
0000
0000
ENDCHAR

STARTCHAR Cad
ENCODING 173
SWIDTH 1000 0
DWIDTH 10 0
BBX 10 20 0 -4
BITMAP
0000
0000
0000
0000
0000
0000
0000
0000
0000
7F00
0000
0000
0000
0000
0000
0000
0000
0000
0000
0000
ENDCHAR

STARTCHAR Cae
ENCODING 174
SWIDTH 1000 0
DWIDTH 10 0
BBX 10 20 0 -4
BITMAP
0000
3E00
4100
8080
BC80
A280
A280
A280
BC80
A480
A280
A280
A280
8080
4100
3E00
0000
0000
0000
0000
ENDCHAR

STARTCHAR Caf
ENCODING 175
SWIDTH 1000 0
DWIDTH 10 0
BBX 10 20 0 -4
BITMAP
0000
FF80
0000
0000
0000
0000
0000
0000
0000
0000
0000
0000
0000
0000
0000
0000
0000
0000
0000
0000
ENDCHAR

STARTCHAR Cb0
ENCODING 176
SWIDTH 1000 0
DWIDTH 10 0
BBX 10 20 0 -4
BITMAP
0000
1C00
2200
2200
1C00
0000
0000
0000
0000
0000
0000
0000
0000
0000
0000
0000
0000
0000
0000
0000
ENDCHAR

STARTCHAR Cb1
ENCODING 177
SWIDTH 1000 0
DWIDTH 10 0
BBX 10 20 0 -4
BITMAP
0000
0000
0000
0800
0800
0800
0800
7F00
0800
0800
0800
0800
0000
0000
7F00
0000
0000
0000
0000
0000
ENDCHAR

STARTCHAR Cb2
ENCODING 178
SWIDTH 1000 0
DWIDTH 10 0
BBX 10 20 0 -4
BITMAP
0000
7000
8800
0800
1000
2000
4000
F800
0000
0000
0000
0000
0000
0000
0000
0000
0000
0000
0000
0000
ENDCHAR

STARTCHAR Cb3
ENCODING 179
SWIDTH 1000 0
DWIDTH 10 0
BBX 10 20 0 -4
BITMAP
0000
7000
8800
0800
7000
0800
8800
7000
0000
0000
0000
0000
0000
0000
0000
0000
0000
0000
0000
0000
ENDCHAR

STARTCHAR Cb4
ENCODING 180
SWIDTH 1000 0
DWIDTH 10 0
BBX 10 20 0 -4
BITMAP
0000
0600
0600
3C00
0000
0000
0000
0000
0000
0000
0000
0000
0000
0000
0000
0000
0000
0000
0000
0000
ENDCHAR

STARTCHAR Cb5
ENCODING 181
SWIDTH 1000 0
DWIDTH 10 0
BBX 10 20 0 -4
BITMAP
0000
0000
0000
0000
0000
0880
0880
0880
1100
1100
1100
1100
2200
2200
2200
3F80
4000
4000
C000
0000
ENDCHAR

STARTCHAR Cb6
ENCODING 182
SWIDTH 1000 0
DWIDTH 10 0
BBX 10 20 0 -4
BITMAP
0000
3900
4900
8900
8900
8900
8900
8900
4900
3900
0900
0900
0900
0900
0900
0900
0000
0000
0000
0000
ENDCHAR

STARTCHAR Cb7
ENCODING 183
SWIDTH 1000 0
DWIDTH 10 0
BBX 10 20 0 -4
BITMAP
0000
0000
0000
0000
0000
0000
0000
0000
1800
3C00
1800
0000
0000
0000
0000
0000
0000
0000
0000
0000
ENDCHAR

STARTCHAR Cb8
ENCODING 184
SWIDTH 1000 0
DWIDTH 10 0
BBX 10 20 0 -4
BITMAP
0000
0000
0000
0000
0000
0000
0000
0000
0000
0000
0000
0000
0000
0000
0000
0400
0200
0200
3C00
0000
ENDCHAR

STARTCHAR Cb9
ENCODING 185
SWIDTH 1000 0
DWIDTH 10 0
BBX 10 20 0 -4
BITMAP
0000
2000
6000
A000
2000
2000
2000
F800
0000
0000
0000
0000
0000
0000
0000
0000
0000
0000
0000
0000
ENDCHAR

STARTCHAR Cba
ENCODING 186
SWIDTH 1000 0
DWIDTH 10 0
BBX 10 20 0 -4
BITMAP
0000
1C00
2200
4100
4100
4100
4100
2200
1C00
0000
FF80
0000
0000
0000
0000
0000
0000
0000
0000
0000
ENDCHAR

STARTCHAR Cbb
ENCODING 187
SWIDTH 1000 0
DWIDTH 10 0
BBX 10 20 0 -4
BITMAP
0000
0000
8800
8800
4400
4400
2200
2200
1100
2200
2200
4400
4400
8800
8800
0000
0000
0000
0000
0000
ENDCHAR

STARTCHAR Cbc
ENCODING 188
SWIDTH 1000 0
DWIDTH 10 0
BBX 10 20 0 -4
BITMAP
0000
2000
6000
2000
2080
2100
2200
7400
0800
1100
2300
4500
8900
0F80
0100
0100
0000
0000
0000
0000
ENDCHAR

STARTCHAR Cbd
ENCODING 189
SWIDTH 1000 0
DWIDTH 10 0
BBX 10 20 0 -4
BITMAP
0000
2000
6000
2000
2080
2100
2200
7400
0800
1000
2700
4880
8080
0300
0400
0F80
0000
0000
0000
0000
ENDCHAR

STARTCHAR Cbe
ENCODING 190
SWIDTH 1000 0
DWIDTH 10 0
BBX 10 20 0 -4
BITMAP
0000
7000
8800
0800
3080
0900
8A00
7400
0800
1100
2300
4500
8900
0F80
0100
0100
0000
0000
0000
0000
ENDCHAR

STARTCHAR Cbf
ENCODING 191
SWIDTH 1000 0
DWIDTH 10 0
BBX 10 20 0 -4
BITMAP
0000
0800
0800
0000
0000
0800
0800
0800
1000
1000
2000
4000
4100
4100
2200
1C00
0000
0000
0000
0000
ENDCHAR

STARTCHAR Cc0
ENCODING 192
SWIDTH 1000 0
DWIDTH 10 0
BBX 10 20 0 -4
BITMAP
0000
3000
3E00
0000
0800
1400
1400
2200
2200
2200
4100
7F00
4100
8080
8080
8080
0000
0000
0000
0000
ENDCHAR

STARTCHAR Cc1
ENCODING 193
SWIDTH 1000 0
DWIDTH 10 0
BBX 10 20 0 -4
BITMAP
0000
0600
3E00
0000
0800
1400
1400
2200
2200
2200
4100
7F00
4100
8080
8080
8080
0000
0000
0000
0000
ENDCHAR

STARTCHAR Cc2
ENCODING 194
SWIDTH 1000 0
DWIDTH 10 0
BBX 10 20 0 -4
BITMAP
0000
1C00
2200
0000
0800
1400
1400
2200
2200
2200
4100
7F00
4100
8080
8080
8080
0000
0000
0000
0000
ENDCHAR

STARTCHAR Cc3
ENCODING 195
SWIDTH 1000 0
DWIDTH 10 0
BBX 10 20 0 -4
BITMAP
0000
3900
4E00
0000
0800
1400
1400
2200
2200
2200
4100
7F00
4100
8080
8080
8080
0000
0000
0000
0000
ENDCHAR

STARTCHAR Cc4
ENCODING 196
SWIDTH 1000 0
DWIDTH 10 0
BBX 10 20 0 -4
BITMAP
0000
2200
2200
0000
0800
1400
1400
2200
2200
2200
4100
7F00
4100
8080
8080
8080
0000
0000
0000
0000
ENDCHAR

STARTCHAR Cc5
ENCODING 197
SWIDTH 1000 0
DWIDTH 10 0
BBX 10 20 0 -4
BITMAP
0000
1C00
3600
1C00
0800
1400
1400
2200
2200
2200
4100
7F00
4100
8080
8080
8080
0000
0000
0000
0000
ENDCHAR

STARTCHAR Cc6
ENCODING 198
SWIDTH 1000 0
DWIDTH 10 0
BBX 10 20 0 -4
BITMAP
0000
0000
0F80
1800
2800
2800
4800
4800
4F00
F800
8800
8800
8800
8800
8800
8F80
0000
0000
0000
0000
ENDCHAR

STARTCHAR Cc7
ENCODING 199
SWIDTH 1000 0
DWIDTH 10 0
BBX 10 20 0 -4
BITMAP
0000
0000
1E00
2180
4080
4000
8000
8000
8000
8000
8000
8000
4080
4080
2100
1E00
0600
0200
3C00
0000
ENDCHAR

STARTCHAR Cc8
ENCODING 200
SWIDTH 1000 0
DWIDTH 10 0
BBX 10 20 0 -4
BITMAP
0000
3000
3E00
0000
FF80
8000
8000
8000
8000
FE00
8000
8000
8000
8000
8000
FF80
0000
0000
0000
0000
ENDCHAR

STARTCHAR Cc9
ENCODING 201
SWIDTH 1000 0
DWIDTH 10 0
BBX 10 20 0 -4
BITMAP
0000
0600
3E00
0000
FF80
8000
8000
8000
8000
FE00
8000
8000
8000
8000
8000
FF80
0000
0000
0000
0000
ENDCHAR

STARTCHAR Cca
ENCODING 202
SWIDTH 1000 0
DWIDTH 10 0
BBX 10 20 0 -4
BITMAP
0000
1C00
2200
0000
FF80
8000
8000
8000
8000
FE00
8000
8000
8000
8000
8000
FF80
0000
0000
0000
0000
ENDCHAR

STARTCHAR Ccb
ENCODING 203
SWIDTH 1000 0
DWIDTH 10 0
BBX 10 20 0 -4
BITMAP
0000
2200
2200
0000
FF80
8000
8000
8000
8000
FE00
8000
8000
8000
8000
8000
FF80
0000
0000
0000
0000
ENDCHAR

STARTCHAR Ccc
ENCODING 204
SWIDTH 1000 0
DWIDTH 10 0
BBX 10 20 0 -4
BITMAP
0000
3000
3E00
0000
3E00
0800
0800
0800
0800
0800
0800
0800
0800
0800
0800
3E00
0000
0000
0000
0000
ENDCHAR

STARTCHAR Ccd
ENCODING 205
SWIDTH 1000 0
DWIDTH 10 0
BBX 10 20 0 -4
BITMAP
0000
0600
3E00
0000
3E00
0800
0800
0800
0800
0800
0800
0800
0800
0800
0800
3E00
0000
0000
0000
0000
ENDCHAR

STARTCHAR Cce
ENCODING 206
SWIDTH 1000 0
DWIDTH 10 0
BBX 10 20 0 -4
BITMAP
0000
1C00
2200
0000
3E00
0800
0800
0800
0800
0800
0800
0800
0800
0800
0800
3E00
0000
0000
0000
0000
ENDCHAR

STARTCHAR Ccf
ENCODING 207
SWIDTH 1000 0
DWIDTH 10 0
BBX 10 20 0 -4
BITMAP
0000
2200
2200
0000
3E00
0800
0800
0800
0800
0800
0800
0800
0800
0800
0800
3E00
0000
0000
0000
0000
ENDCHAR

STARTCHAR Cd0
ENCODING 208
SWIDTH 1000 0
DWIDTH 10 0
BBX 10 20 0 -4
BITMAP
0000
0000
F800
4600
4100
4100
4080
4080
F880
4080
4080
4080
4100
4100
4600
F800
0000
0000
0000
0000
ENDCHAR

STARTCHAR Cd1
ENCODING 209
SWIDTH 1000 0
DWIDTH 10 0
BBX 10 20 0 -4
BITMAP
0000
3900
4E00
0000
8080
C080
C080
A080
9080
8880
8880
8480
8280
8180
8180
8080
0000
0000
0000
0000
ENDCHAR

STARTCHAR Cd2
ENCODING 210
SWIDTH 1000 0
DWIDTH 10 0
BBX 10 20 0 -4
BITMAP
0000
3000
3E00
0000
1C00
2200
4100
8080
8080
8080
8080
8080
8080
4100
2200
1C00
0000
0000
0000
0000
ENDCHAR

STARTCHAR Cd3
ENCODING 211
SWIDTH 1000 0
DWIDTH 10 0
BBX 10 20 0 -4
BITMAP
0000
0600
3E00
0000
1C00
2200
4100
8080
8080
8080
8080
8080
8080
4100
2200
1C00
0000
0000
0000
0000
ENDCHAR

STARTCHAR Cd4
ENCODING 212
SWIDTH 1000 0
DWIDTH 10 0
BBX 10 20 0 -4
BITMAP
0000
1C00
2200
0000
1C00
2200
4100
8080
8080
8080
8080
8080
8080
4100
2200
1C00
0000
0000
0000
0000
ENDCHAR

STARTCHAR Cd5
ENCODING 213
SWIDTH 1000 0
DWIDTH 10 0
BBX 10 20 0 -4
BITMAP
0000
3900
4E00
0000
1C00
2200
4100
8080
8080
8080
8080
8080
8080
4100
2200
1C00
0000
0000
0000
0000
ENDCHAR

STARTCHAR Cd6
ENCODING 214
SWIDTH 1000 0
DWIDTH 10 0
BBX 10 20 0 -4
BITMAP
0000
2200
2200
0000
1C00
2200
4100
8080
8080
8080
8080
8080
8080
4100
2200
1C00
0000
0000
0000
0000
ENDCHAR

STARTCHAR Cd7
ENCODING 215
SWIDTH 1000 0
DWIDTH 10 0
BBX 10 20 0 -4
BITMAP
0000
0000
0000
0000
0000
8080
4100
2200
1400
0800
1400
2200
4100
8080
0000
0000
0000
0000
0000
0000
ENDCHAR

STARTCHAR Cd8
ENCODING 216
SWIDTH 1000 0
DWIDTH 10 0
BBX 10 20 0 -4
BITMAP
0000
0200
1E00
2200
4500
8480
8480
8880
8880
8880
9080
9080
5100
2200
3C00
2000
0000
0000
0000
0000
ENDCHAR

STARTCHAR Cd9
ENCODING 217
SWIDTH 1000 0
DWIDTH 10 0
BBX 10 20 0 -4
BITMAP
0000
3000
3E00
0000
8080
8080
8080
8080
8080
8080
8080
8080
8080
4100
2200
1C00
0000
0000
0000
0000
ENDCHAR

STARTCHAR Cda
ENCODING 218
SWIDTH 1000 0
DWIDTH 10 0
BBX 10 20 0 -4
BITMAP
0000
0600
3E00
0000
8080
8080
8080
8080
8080
8080
8080
8080
8080
4100
2200
1C00
0000
0000
0000
0000
ENDCHAR

STARTCHAR Cdb
ENCODING 219
SWIDTH 1000 0
DWIDTH 10 0
BBX 10 20 0 -4
BITMAP
0000
1C00
2200
0000
8080
8080
8080
8080
8080
8080
8080
8080
8080
4100
2200
1C00
0000
0000
0000
0000
ENDCHAR

STARTCHAR Cdc
ENCODING 220
SWIDTH 1000 0
DWIDTH 10 0
BBX 10 20 0 -4
BITMAP
0000
2200
2200
0000
8080
8080
8080
8080
8080
8080
8080
8080
8080
4100
2200
1C00
0000
0000
0000
0000
ENDCHAR

STARTCHAR Cdd
ENCODING 221
SWIDTH 1000 0
DWIDTH 10 0
BBX 10 20 0 -4
BITMAP
0000
0600
3E00
0000
8080
8080
4100
4100
2200
2200
1400
0800
0800
0800
0800
1C00
0000
0000
0000
0000
ENDCHAR

STARTCHAR Cde
ENCODING 222
SWIDTH 1000 0
DWIDTH 10 0
BBX 10 20 0 -4
BITMAP
0000
E000
4000
4000
7E00
4100
4080
4080
4080
4100
7E00
4000
4000
4000
4000
E000
0000
0000
0000
0000
ENDCHAR

STARTCHAR Cdf
ENCODING 223
SWIDTH 1000 0
DWIDTH 10 0
BBX 10 20 0 -4
BITMAP
0000
0000
0E00
1100
2100
2100
2100
2200
4E00
4100
4080
4080
4080
4080
5100
4E00
4000
C000
8000
0000
ENDCHAR

STARTCHAR Ce0
ENCODING 224
SWIDTH 1000 0
DWIDTH 10 0
BBX 10 20 0 -4
BITMAP
0000
0000
0000
0000
3000
3E00
0000
3C00
4200
0200
0600
3A00
4200
8200
8600
7B80
0000
0000
0000
0000
ENDCHAR

STARTCHAR Ce1
ENCODING 225
SWIDTH 1000 0
DWIDTH 10 0
BBX 10 20 0 -4
BITMAP
0000
0000
0000
0000
0600
3E00
0000
3C00
4200
0200
0600
3A00
4200
8200
8600
7B80
0000
0000
0000
0000
ENDCHAR

STARTCHAR Ce2
ENCODING 226
SWIDTH 1000 0
DWIDTH 10 0
BBX 10 20 0 -4
BITMAP
0000
0000
0000
0000
1C00
2200
0000
3C00
4200
0200
0600
3A00
4200
8200
8600
7B80
0000
0000
0000
0000
ENDCHAR

STARTCHAR Ce3
ENCODING 227
SWIDTH 1000 0
DWIDTH 10 0
BBX 10 20 0 -4
BITMAP
0000
0000
0000
0000
3900
4E00
0000
3C00
4200
0200
0600
3A00
4200
8200
8600
7B80
0000
0000
0000
0000
ENDCHAR

STARTCHAR Ce4
ENCODING 228
SWIDTH 1000 0
DWIDTH 10 0
BBX 10 20 0 -4
BITMAP
0000
0000
0000
0000
2000
2200
0000
3C00
4200
0200
0600
3A00
4200
8200
8600
7B80
0000
0000
0000
0000
ENDCHAR

STARTCHAR Ce5
ENCODING 229
SWIDTH 1000 0
DWIDTH 10 0
BBX 10 20 0 -4
BITMAP
0000
0000
0000
1C00
3600
1C00
0000
3C00
4200
0200
0600
3A00
4200
8200
8600
7B80
0000
0000
0000
0000
ENDCHAR

STARTCHAR Ce6
ENCODING 230
SWIDTH 1000 0
DWIDTH 10 0
BBX 10 20 0 -4
BITMAP
0000
0000
0000
0000
0000
0000
0000
7700
8880
0880
0880
7F80
8800
8800
9880
7700
0000
0000
0000
0000
ENDCHAR

STARTCHAR Ce7
ENCODING 231
SWIDTH 1000 0
DWIDTH 10 0
BBX 10 20 0 -4
BITMAP
0000
0000
0000
0000
0000
0000
0000
1C00
2300
4100
4000
4000
4000
4100
2200
1C00
0400
0200
1C00
0000
ENDCHAR

STARTCHAR Ce8
ENCODING 232
SWIDTH 1000 0
DWIDTH 10 0
BBX 10 20 0 -4
BITMAP
0000
0000
0000
0000
3000
3E00
0000
1C00
2200
4100
4100
7F00
4000
4000
2100
1E00
0000
0000
0000
0000
ENDCHAR

STARTCHAR Ce9
ENCODING 233
SWIDTH 1000 0
DWIDTH 10 0
BBX 10 20 0 -4
BITMAP
0000
0000
0000
0000
0600
3E00
0000
1C00
2200
4100
4100
7F00
4000
4000
2100
1E00
0000
0000
0000
0000
ENDCHAR

STARTCHAR Cea
ENCODING 234
SWIDTH 1000 0
DWIDTH 10 0
BBX 10 20 0 -4
BITMAP
0000
0000
0000
0000
1C00
2200
0000
1C00
2200
4100
4100
7F00
4000
4000
2100
1E00
0000
0000
0000
0000
ENDCHAR

STARTCHAR Ceb
ENCODING 235
SWIDTH 1000 0
DWIDTH 10 0
BBX 10 20 0 -4
BITMAP
0000
0000
0000
0000
2200
2200
0000
1C00
2200
4100
4100
7F00
4000
4000
2100
1E00
0000
0000
0000
0000
ENDCHAR

STARTCHAR Cec
ENCODING 236
SWIDTH 1000 0
DWIDTH 10 0
BBX 10 20 0 -4
BITMAP
0000
0000
0000
0000
3000
3E00
0000
3800
0800
0800
0800
0800
0800
0800
0800
3E00
0000
0000
0000
0000
ENDCHAR

STARTCHAR Ced
ENCODING 237
SWIDTH 1000 0
DWIDTH 10 0
BBX 10 20 0 -4
BITMAP
0000
0000
0000
0000
0600
3E00
0000
3800
0800
0800
0800
0800
0800
0800
0800
3E00
0000
0000
0000
0000
ENDCHAR

STARTCHAR Cee
ENCODING 238
SWIDTH 1000 0
DWIDTH 10 0
BBX 10 20 0 -4
BITMAP
0000
0000
0000
0000
1C00
2200
0000
3800
0800
0800
0800
0800
0800
0800
0800
3E00
0000
0000
0000
0000
ENDCHAR

STARTCHAR Cef
ENCODING 239
SWIDTH 1000 0
DWIDTH 10 0
BBX 10 20 0 -4
BITMAP
0000
0000
0000
0000
2200
2200
0000
3800
0800
0800
0800
0800
0800
0800
0800
3E00
0000
0000
0000
0000
ENDCHAR

STARTCHAR Cf0
ENCODING 240
SWIDTH 1000 0
DWIDTH 10 0
BBX 10 20 0 -4
BITMAP
0000
0000
3100
0A00
0C00
1200
0200
0100
1D00
2300
4100
4100
4100
4100
2200
1C00
0000
0000
0000
0000
ENDCHAR

STARTCHAR Cf1
ENCODING 241
SWIDTH 1000 0
DWIDTH 10 0
BBX 10 20 0 -4
BITMAP
0000
0000
0000
0000
3900
4E00
0000
5C00
6200
4100
4100
4100
4100
4100
4100
4100
0000
0000
0000
0000
ENDCHAR

STARTCHAR Cf2
ENCODING 242
SWIDTH 1000 0
DWIDTH 10 0
BBX 10 20 0 -4
BITMAP
0000
0000
0000
0000
3000
3E00
0000
1C00
2200
4100
4100
4100
4100
4100
2200
1C00
0000
0000
0000
0000
ENDCHAR

STARTCHAR Cf3
ENCODING 243
SWIDTH 1000 0
DWIDTH 10 0
BBX 10 20 0 -4
BITMAP
0000
0000
0000
0000
0600
3E00
0000
1C00
2200
4100
4100
4100
4100
4100
2200
1C00
0000
0000
0000
0000
ENDCHAR

STARTCHAR Cf4
ENCODING 244
SWIDTH 1000 0
DWIDTH 10 0
BBX 10 20 0 -4
BITMAP
0000
0000
0000
0000
1C00
2200
0000
1C00
2200
4100
4100
4100
4100
4100
2200
1C00
0000
0000
0000
0000
ENDCHAR

STARTCHAR Cf5
ENCODING 245
SWIDTH 1000 0
DWIDTH 10 0
BBX 10 20 0 -4
BITMAP
0000
0000
0000
0000
3900
4E00
0000
1C00
2200
4100
4100
4100
4100
4100
2200
1C00
0000
0000
0000
0000
ENDCHAR

STARTCHAR Cf6
ENCODING 246
SWIDTH 1000 0
DWIDTH 10 0
BBX 10 20 0 -4
BITMAP
0000
0000
0000
0000
2200
2200
0000
1C00
2200
4100
4100
4100
4100
4100
2200
1C00
0000
0000
0000
0000
ENDCHAR

STARTCHAR Cf7
ENCODING 247
SWIDTH 1000 0
DWIDTH 10 0
BBX 10 20 0 -4
BITMAP
0000
0000
0000
0000
0800
1C00
0800
0000
0000
7F00
0000
0000
0800
1C00
0800
0000
0000
0000
0000
0000
ENDCHAR

STARTCHAR Cf8
ENCODING 248
SWIDTH 1000 0
DWIDTH 10 0
BBX 10 20 0 -4
BITMAP
0000
0000
0000
0000
0000
0000
0100
1E00
2600
4500
4900
4900
4900
5100
3200
3C00
4000
0000
0000
0000
ENDCHAR

STARTCHAR Cf9
ENCODING 249
SWIDTH 1000 0
DWIDTH 10 0
BBX 10 20 0 -4
BITMAP
0000
0000
0000
0000
3000
3E00
0000
4100
4100
4100
4100
4100
4100
4100
2300
1D00
0000
0000
0000
0000
ENDCHAR

STARTCHAR Cfa
ENCODING 250
SWIDTH 1000 0
DWIDTH 10 0
BBX 10 20 0 -4
BITMAP
0000
0000
0000
0000
0600
3E00
0000
4100
4100
4100
4100
4100
4100
4100
2300
1D00
0000
0000
0000
0000
ENDCHAR

STARTCHAR Cfb
ENCODING 251
SWIDTH 1000 0
DWIDTH 10 0
BBX 10 20 0 -4
BITMAP
0000
0000
0000
0000
1C00
2200
0000
4100
4100
4100
4100
4100
4100
4100
2300
1D00
0000
0000
0000
0000
ENDCHAR

STARTCHAR Cfc
ENCODING 252
SWIDTH 1000 0
DWIDTH 10 0
BBX 10 20 0 -4
BITMAP
0000
0000
0000
0000
2200
2200
0000
4100
4100
4100
4100
4100
4100
4100
2300
1D00
0000
0000
0000
0000
ENDCHAR

STARTCHAR Cfd
ENCODING 253
SWIDTH 1000 0
DWIDTH 10 0
BBX 10 20 0 -4
BITMAP
0000
0000
0000
0000
0600
3E00
0000
4100
4100
2200
2200
2200
1400
1400
1C00
0800
1000
1000
6000
0000
ENDCHAR

STARTCHAR Cfe
ENCODING 254
SWIDTH 1000 0
DWIDTH 10 0
BBX 10 20 0 -4
BITMAP
0000
0000
0000
0000
0000
6000
2000
3C00
2200
2100
2100
2100
2100
2100
2200
3C00
2000
2000
7000
0000
ENDCHAR

STARTCHAR Cff
ENCODING 255
SWIDTH 1000 0
DWIDTH 10 0
BBX 10 20 0 -4
BITMAP
0000
0000
0000
0000
2200
2200
0000
4100
4100
2200
2200
2200
1400
1400
1C00
0800
1000
1000
6000
0000
ENDCHAR
ENDFONT
